Coordinates
version=1
nRows=8
nColumns=40
inDegrees=yes

Units are S.I. units (second, meters, Newtons, ...)
Angles are in degrees.

endheader
time	pelvis_tilt	pelvis_list	pelvis_rotation	pelvis_tx	pelvis_ty	pelvis_tz	hip_flexion_r	hip_adduction_r	hip_rotation_r	knee_angle_r	knee_angle_r_beta	ankle_angle_r	subtalar_angle_r	mtp_angle_r	hip_flexion_l	hip_adduction_l	hip_rotation_l	knee_angle_l	knee_angle_l_beta	ankle_angle_l	subtalar_angle_l	mtp_angle_l	lumbar_extension	lumbar_bending	lumbar_rotation	arm_flex_r	arm_add_r	arm_rot_r	elbow_flex_r	pro_sup_r	wrist_flex_r	wrist_dev_r	arm_flex_l	arm_add_l	arm_rot_l	elbow_flex_l	pro_sup_l	wrist_flex_l	wrist_dev_l
     51.03250000	     -4.97016850	     -4.89237289	     -1.57157203	      0.93281980	      0.93099313	      0.41213084	     38.19663290	     -6.30706640	     -5.07443918	     68.48500300	     68.48500300	      3.73123141	    -15.40444049	      1.20189533	     14.69124933	     -6.36291218	     -8.33745692	     22.47456676	     22.47456676	     14.95779224	     -7.99867645	     -1.05201928	    -11.81685586	      4.14997968	      2.59305922	      3.24405087	    -13.70173042	     -1.15711918	     54.46983846	     45.90377610	      0.00000000	      0.00000000	     17.61302742	    -16.15029685	      7.04662935	     47.92569560	     45.84145409	      0.00000000	      0.00000000
     51.04357143	     -4.98529338	     -4.85660193	     -1.74719305	      0.93193435	      0.93081345	      0.41264193	     38.63183408	     -6.13695807	     -4.91602468	     66.15758720	     66.15758720	      3.59427593	    -15.14041431	      1.01895998	     14.12176968	     -6.33254902	     -8.41309835	     22.35945473	     22.35945473	     15.31316099	     -8.11595774	     -0.93708948	    -11.78244161	      4.10644342	      2.36342598	      3.37156612	    -12.99572794	     -2.27321430	     47.69726127	     46.17048799	      0.00000000	      0.00000000	     18.53804376	    -17.20767346	      7.77841587	     50.69449988	     45.85025316	      0.00000000	      0.00000000
     51.05464286	     -4.86663442	     -4.92565205	     -1.85531136	      0.93120411	      0.93076043	      0.41316625	     38.70444477	     -5.90336092	     -4.97089295	     63.46207732	     63.46207732	      3.49306534	    -14.94767895	      0.82467904	     13.40517106	     -6.39446692	     -8.36755739	     22.24961724	     22.24961724	     15.70359947	     -8.23648236	     -0.89711691	    -11.94808806	      4.23514850	      2.20799267	      2.83507721	    -12.64970309	     -3.06380612	     43.02234856	     46.33772811	      0.00000000	      0.00000000	     19.44693786	    -17.97434400	      7.82340859	     53.54093216	     45.94255850	      0.00000000	      0.00000000
     51.06571429	     -4.92300119	     -4.94081293	     -2.09433223	      0.93049687	      0.93043326	      0.41395973	     38.83413971	     -5.64003501	     -5.01947764	     60.47511553	     60.47511553	      3.51427836	    -14.64514741	      0.92241160	     12.78861094	     -6.42266386	     -8.45295732	     22.00299651	     22.00299651	     16.05201780	     -8.36970201	     -0.93438130	    -11.97852079	      4.29376771	      2.75699225	      1.38067237	    -12.85037848	     -3.26965020	     40.38058102	     46.42321019	      0.00000000	      0.00000000	     20.88547699	    -18.20031346	      7.56914122	     55.56198002	     46.02303339	      0.00000000	      0.00000000
     51.07678571	     -4.91075477	     -5.05780263	     -2.25669253	      0.92986978	      0.93025087	      0.41469656	     38.67264319	     -5.33123263	     -5.32051686	     57.13037462	     57.13037462	      3.55416011	    -14.24401958	      1.14074494	     12.08796082	     -6.54572394	     -8.47862265	     21.73495540	     21.73495540	     16.35851442	     -8.48864327	     -0.96880940	    -12.05722833	      4.51385786	      3.05247813	     -0.06635380	    -13.04349678	     -3.39293009	     38.34235833	     46.49205078	      0.00000000	      0.00000000	     22.17710414	    -18.36629878	      7.38232430	     57.31025917	     46.08103979	      0.00000000	      0.00000000
     51.08785714	     -4.96482315	     -5.05141694	     -2.48222145	      0.92932464	      0.92989731	      0.41561092	     38.45212556	     -5.08228442	     -5.62750543	     53.53811436	     53.53811436	      3.59620441	    -13.76450949	      1.26170717	     11.40617957	     -6.54722022	     -8.59969326	     21.39885085	     21.39885085	     16.65675814	     -8.57169910	     -1.03806503	    -12.07443369	      4.55804182	      3.50129718	     -1.42227421	    -13.15636519	     -3.58495856	     35.89970961	     46.58247509	      0.00000000	      0.00000000	     23.38564338	    -18.55436448	      7.25038397	     59.56670283	     46.14168747	      0.00000000	      0.00000000
     51.09892857	     -5.08699767	     -4.90066979	     -2.70759281	      0.92890064	      0.92927905	      0.41661595	     38.12543214	     -4.91958418	     -5.92199167	     49.63675344	     49.63675344	      3.15435718	    -13.42608526	     -0.17086436	     10.79305696	     -6.40502511	     -8.78093369	     21.05211651	     21.05211651	     16.81846072	     -8.63816683	     -1.46227400	    -11.95932852	      4.38836208	      2.57446432	     -0.27003745	    -12.42259505	     -5.30062764	     29.26269279	     46.92704501	      0.00000000	      0.00000000	     22.78144058	    -20.46121088	      7.18465437	     64.84965330	     46.28044679	      0.00000000	      0.00000000
     51.11000000	     -5.15019720	     -4.86106216	     -2.92568798	      0.92868930	      0.92877875	      0.41769125	     37.54399401	     -4.64639129	     -6.45335961	     45.55182347	     45.55182347	      3.28675783	    -12.48719644	      0.11335451	     10.05439255	     -6.36950903	     -8.91670103	     20.63732154	     20.63732154	     17.12565584	     -8.65561727	     -1.54415923	    -11.89995595	      4.41862209	      3.03441171	     -1.83902919	    -12.64649465	     -5.47408202	     28.04234396	     46.97081043	      0.00000000	      0.00000000	     23.98451783	    -20.37570233	      6.63764862	     66.53945870	     46.36697845	      0.00000000	      0.00000000
